<svg width="200" height="200" viewBox="0 0 200 200" fill="none" xmlns="http://www.w3.org/2000/svg">
<rect x="0.5" y="0.5" width="199" height="199" rx="4.5" fill="black" stroke="white"/>
<path d="M41.8422 109H44.1822L37.4322 88H34.7922L28.0422 109H30.3822L32.3022 103.09H39.9222L41.8422 109ZM39.2322 100.96H32.9922L36.1122 91.21L39.2322 100.96ZM47.9441 109H55.4441C59.9441 109 61.5041 106.03 61.5041 103.12C61.5041 101.2 60.6041 99.22 58.6841 98.26C60.0341 97.42 60.9941 95.8 60.9941 93.76C60.9941 90.97 59.4041 88 54.9341 88H47.9441V109ZM55.4441 99.52C57.7241 99.52 59.1641 100.87 59.1641 103.12C59.1641 105.37 57.7241 106.72 55.4441 106.72H50.2541V99.52H55.4441ZM58.6541 93.76C58.6541 95.77 57.3041 97.24 54.9341 97.24H50.2541V90.28H54.9341C57.3041 90.28 58.6541 91.75 58.6541 93.76ZM72.6461 109.3C76.8461 109.3 79.0061 107.05 79.0061 103.69C79.0061 100.36 77.0861 98.53 74.1161 97.69L71.6561 97C69.4961 96.4 68.5361 95.2 68.5361 93.28C68.5361 91.45 69.8861 89.98 72.4061 89.98C74.6561 89.98 75.9161 91.3 76.3661 93.31H78.7361C78.2861 89.74 76.0361 87.7 72.4061 87.7C69.0461 87.7 66.1961 89.68 66.1961 93.28C66.1961 95.83 67.4861 98.38 70.6061 99.25L73.2761 100C75.6461 100.66 76.6661 101.8 76.6661 103.69C76.6661 105.91 75.0161 107.02 72.6461 107.02C70.3961 107.02 68.5661 105.49 68.2061 102.79H65.8361C66.1361 106.81 68.8361 109.3 72.6461 109.3ZM95.338 102.19C95.338 105.37 93.358 107.02 90.868 107.02C88.378 107.02 86.398 105.37 86.398 102.19V94.81C86.398 91.63 88.378 89.98 90.868 89.98C93.358 89.98 95.338 91.63 95.338 94.81V102.19ZM97.648 94.81C97.648 90.4 94.888 87.7 90.868 87.7C86.848 87.7 84.088 90.4 84.088 94.81V102.19C84.088 106.6 86.848 109.3 90.868 109.3C94.888 109.3 97.648 106.6 97.648 102.19V94.81ZM103.66 109H115.6V106.72H105.97V88H103.66V109ZM120.592 102.19C120.592 106.6 123.352 109.3 127.372 109.3C131.392 109.3 134.152 106.6 134.152 102.19V88H131.842V102.19C131.842 105.37 129.862 107.02 127.372 107.02C124.882 107.02 122.902 105.37 122.902 102.19V88H120.592V102.19ZM144.454 90.28V109H146.764V90.28H152.374V88H138.844V90.28H144.454ZM160.516 99.52H168.046V97.24H160.516V90.28H170.146V88H158.206V109H170.146V106.72H160.516V99.52Z" fill="#00FF00"/>
</svg>
