<svg width="200" height="200" viewBox="0 0 200 200" fill="none" xmlns="http://www.w3.org/2000/svg">
<rect x="0.5" y="0.5" width="199" height="199" rx="4.5" fill="#0000FF" stroke="#00FF00"/>
<path d="M60.6701 99.52H68.2001V97.24H60.6701V90.28H70.3001V88H58.3601V109H60.6701V99.52ZM87.7421 90.28V88H75.7721V90.28H80.6021V106.72H75.7721V109H87.7421V106.72H82.9121V90.28H87.7421ZM99.994 96.49L95.074 88H92.524L98.434 98.14L92.074 109H94.714L99.994 99.88L105.274 109H107.914L101.554 98.14L107.464 88H104.914L99.994 96.49ZM114.886 99.52H122.416V97.24H114.886V90.28H124.516V88H112.576V109H124.516V106.72H114.886V99.52ZM129.838 88V109H136.618C140.638 109 143.398 106.3 143.398 101.89V95.11C143.398 90.7 140.638 88 136.618 88H129.838ZM136.618 90.28C139.108 90.31 141.088 91.93 141.088 95.11V101.89C141.088 105.07 139.108 106.72 136.618 106.72H132.148V90.28H136.618Z" fill="white"/>
</svg>
