<svg width="200" height="200" viewBox="0 0 200 200" fill="none" xmlns="http://www.w3.org/2000/svg">
<rect x="0.5" y="0.5" width="199" height="199" rx="4.5" fill="#00FF00" stroke="black"/>
<path d="M35.5722 99.49L41.1522 109H43.8222L38.2122 99.43C41.8122 98.95 43.1322 96.31 43.1322 93.76C43.1322 90.97 41.5422 88 37.0722 88H29.9322V109H32.2422V99.49H35.5722ZM40.7922 93.76C40.7922 95.77 39.4422 97.27 37.0722 97.27H32.2422V90.28H37.0722C39.4422 90.28 40.7922 91.75 40.7922 93.76ZM51.0041 99.52H58.5341V97.24H51.0041V90.28H60.6341V88H48.6941V109H60.6341V106.72H51.0041V99.52ZM67.1561 109H79.0961V106.72H69.4661V88H67.1561V109ZM96.598 109H98.938L92.188 88H89.548L82.798 109H85.138L87.058 103.09H94.678L96.598 109ZM93.988 100.96H87.748L90.868 91.21L93.988 100.96ZM107.95 90.28V109H110.26V90.28H115.87V88H102.34V90.28H107.95ZM133.372 90.28V88H121.402V90.28H126.232V106.72H121.402V109H133.372V106.72H128.542V90.28H133.372ZM145.624 105.79L139.894 88H137.554L144.304 109H146.944L153.694 88H151.354L145.624 105.79ZM160.516 99.52H168.046V97.24H160.516V90.28H170.146V88H158.206V109H170.146V106.72H160.516V99.52Z" fill="#0000FF"/>
</svg>
