<svg width="200" height="200" viewBox="0 0 200 200" fill="none" xmlns="http://www.w3.org/2000/svg">
<rect x="0.5" y="0.5" width="199" height="199" rx="4.5" fill="white" stroke="#0000FF"/>
<path d="M54.3941 109.3C58.5941 109.3 60.7541 107.05 60.7541 103.69C60.7541 100.36 58.8341 98.53 55.8641 97.69L53.4041 97C51.2441 96.4 50.2841 95.2 50.2841 93.28C50.2841 91.45 51.6341 89.98 54.1541 89.98C56.4041 89.98 57.6641 91.3 58.1141 93.31H60.4841C60.0341 89.74 57.7841 87.7 54.1541 87.7C50.7941 87.7 47.9441 89.68 47.9441 93.28C47.9441 95.83 49.2341 98.38 52.3541 99.25L55.0241 100C57.3941 100.66 58.4141 101.8 58.4141 103.69C58.4141 105.91 56.7641 107.02 54.3941 107.02C52.1441 107.02 50.3141 105.49 49.9541 102.79H47.5841C47.8841 106.81 50.5841 109.3 54.3941 109.3ZM71.4461 90.28V109H73.7561V90.28H79.3661V88H65.8361V90.28H71.4461ZM96.598 109H98.938L92.188 88H89.548L82.798 109H85.138L87.058 103.09H94.678L96.598 109ZM93.988 100.96H87.748L90.868 91.21L93.988 100.96ZM107.95 90.28V109H110.26V90.28H115.87V88H102.34V90.28H107.95ZM133.372 90.28V88H121.402V90.28H126.232V106.72H121.402V109H133.372V106.72H128.542V90.28H133.372ZM145.744 87.7C141.724 87.7 138.964 90.4 138.964 94.81V102.19C138.964 106.6 141.724 109.3 145.744 109.3C149.584 109.3 152.254 106.84 152.494 102.79H150.184C149.944 105.58 148.084 107.02 145.744 107.02C143.254 107.02 141.274 105.37 141.274 102.19V94.81C141.274 91.63 143.254 89.98 145.744 89.98C148.084 89.98 149.944 91.42 150.184 94.21H152.494C152.254 90.16 149.584 87.7 145.744 87.7Z" fill="black"/>
</svg>
