<svg width="300" height="300" viewBox="0 0 300 300" fill="none" xmlns="http://www.w3.org/2000/svg">
<rect x="0.5" y="0.5" width="299" height="299" rx="4.5" fill="black" stroke="black"/>
<path d="M134.786 144H153.626V120H165.626V144H178.826V156H165.626V180H153.626V156H121.226V144L152.066 96H165.626L134.786 144Z" fill="white"/>
<path d="M134.786 144L133.944 143.459L132.955 145H134.786V144ZM153.626 144V145H154.626V144H153.626ZM153.626 120V119H152.626V120H153.626ZM165.626 120H166.626V119H165.626V120ZM165.626 144H164.626V145H165.626V144ZM178.826 144H179.826V143H178.826V144ZM178.826 156V157H179.826V156H178.826ZM165.626 156V155H164.626V156H165.626ZM165.626 180V181H166.626V180H165.626ZM153.626 180H152.626V181H153.626V180ZM153.626 156H154.626V155H153.626V156ZM121.226 156H120.226V157H121.226V156ZM121.226 144L120.384 143.459L120.226 143.706V144H121.226ZM152.066 96V95H151.52L151.224 95.4594L152.066 96ZM165.626 96L166.467 96.5405L167.457 95H165.626V96ZM134.786 145H153.626V143H134.786V145ZM154.626 144V120H152.626V144H154.626ZM153.626 121H165.626V119H153.626V121ZM164.626 120V144H166.626V120H164.626ZM165.626 145H178.826V143H165.626V145ZM177.826 144V156H179.826V144H177.826ZM178.826 155H165.626V157H178.826V155ZM164.626 156V180H166.626V156H164.626ZM165.626 179H153.626V181H165.626V179ZM154.626 180V156H152.626V180H154.626ZM153.626 155H121.226V157H153.626V155ZM122.226 156V144H120.226V156H122.226ZM122.067 144.541L152.907 96.5405L151.224 95.4594L120.384 143.459L122.067 144.541ZM152.066 97H165.626V95H152.066V97ZM164.784 95.4594L133.944 143.459L135.627 144.541L166.467 96.5405L164.784 95.4594Z" fill="black"/>
</svg>
