<svg width="300" height="300" viewBox="0 0 300 300" fill="none" xmlns="http://www.w3.org/2000/svg">
<rect x="0.5" y="0.5" width="299" height="299" rx="4.5" fill="#0000FF" stroke="black"/>
<path d="M124.226 119.4C124.226 112.04 126.586 105.92 131.306 101.04C136.026 96.08 142.266 93.6 150.026 93.6C157.786 93.6 164.026 96.08 168.746 101.04C173.466 105.92 175.826 112.04 175.826 119.4C175.826 122.6 175.146 125.72 173.786 128.76C172.426 131.72 171.066 134.04 169.706 135.72C168.426 137.32 166.426 139.6 163.706 142.56L139.946 168H175.826V180H124.226V168L155.426 134.4C161.026 128.56 163.826 123.56 163.826 119.4C163.826 115.48 162.586 112.2 160.106 109.56C157.626 106.92 154.266 105.6 150.026 105.6C145.786 105.6 142.426 106.92 139.946 109.56C137.466 112.2 136.226 115.48 136.226 119.4V124.2H124.226V119.4Z" fill="white"/>
<path d="M131.306 101.04L132.025 101.735L132.03 101.729L131.306 101.04ZM168.746 101.04L168.021 101.729L168.027 101.735L168.746 101.04ZM173.786 128.76L174.695 129.178L174.699 129.168L173.786 128.76ZM169.706 135.72L168.929 135.091L168.925 135.095L169.706 135.72ZM163.706 142.56L164.437 143.243L164.442 143.237L163.706 142.56ZM139.946 168L139.215 167.317L137.644 169H139.946V168ZM175.826 168H176.826V167H175.826V168ZM175.826 180V181H176.826V180H175.826ZM124.226 180H123.226V181H124.226V180ZM124.226 168L123.493 167.32L123.226 167.607V168H124.226ZM155.426 134.4L154.704 133.708L154.698 133.714L154.693 133.72L155.426 134.4ZM160.106 109.56L160.835 108.875L160.835 108.875L160.106 109.56ZM136.226 124.2V125.2H137.226V124.2H136.226ZM124.226 124.2H123.226V125.2H124.226V124.2ZM125.226 119.4C125.226 112.276 127.501 106.412 132.025 101.735L130.587 100.345C125.671 105.428 123.226 111.804 123.226 119.4H125.226ZM132.03 101.729C136.535 96.995 142.5 94.6 150.026 94.6V92.6C142.032 92.6 135.516 95.165 130.581 100.351L132.03 101.729ZM150.026 94.6C157.552 94.6 163.516 96.995 168.021 101.729L169.47 100.351C164.535 95.165 158.02 92.6 150.026 92.6V94.6ZM168.027 101.735C172.551 106.412 174.826 112.276 174.826 119.4H176.826C176.826 111.804 174.381 105.428 169.465 100.345L168.027 101.735ZM174.826 119.4C174.826 122.454 174.178 125.435 172.873 128.352L174.699 129.168C176.114 126.005 176.826 122.746 176.826 119.4H174.826ZM172.877 128.342C171.536 131.261 170.217 133.499 168.929 135.091L170.483 136.349C171.915 134.581 173.315 132.179 174.694 129.177L172.877 128.342ZM168.925 135.095C167.667 136.668 165.686 138.927 162.969 141.883L164.442 143.237C167.166 140.273 169.185 137.972 170.487 136.345L168.925 135.095ZM162.975 141.877L139.215 167.317L140.677 168.683L164.437 143.243L162.975 141.877ZM139.946 169H175.826V167H139.946V169ZM174.826 168V180H176.826V168H174.826ZM175.826 179H124.226V181H175.826V179ZM125.226 180V168H123.226V180H125.226ZM124.959 168.68L156.159 135.08L154.693 133.72L123.493 167.32L124.959 168.68ZM156.148 135.092C161.779 129.22 164.826 123.972 164.826 119.4H162.826C162.826 123.148 160.273 127.9 154.704 133.708L156.148 135.092ZM164.826 119.4C164.826 115.248 163.504 111.717 160.835 108.875L159.377 110.245C161.668 112.683 162.826 115.712 162.826 119.4H164.826ZM160.835 108.875C158.133 106 154.491 104.6 150.026 104.6V106.6C154.041 106.6 157.118 107.84 159.377 110.245L160.835 108.875ZM150.026 104.6C145.561 104.6 141.918 106 139.217 108.875L140.675 110.245C142.933 107.84 146.011 106.6 150.026 106.6V104.6ZM139.217 108.875C136.548 111.717 135.226 115.248 135.226 119.4H137.226C137.226 115.712 138.384 112.683 140.675 110.245L139.217 108.875ZM135.226 119.4V124.2H137.226V119.4H135.226ZM136.226 123.2H124.226V125.2H136.226V123.2ZM125.226 124.2V119.4H123.226V124.2H125.226Z" fill="black"/>
</svg>
