<svg width="501" height="40" viewBox="0 0 501 40" fill="none" xmlns="http://www.w3.org/2000/svg">
<path d="M0.561768 34.3773C2.03887 34.3773 3.64728 33.8677 5.38698 32.8483C7.12668 31.829 8.60378 30.3658 9.81829 28.4587C11.0328 26.5187 11.6401 24.2499 11.6401 21.6523C11.6401 18.397 11.082 15.6679 9.966 13.4649C8.84997 11.2289 7.52057 9.58487 5.97782 8.53268C4.43507 7.4476 3.04002 6.90506 1.79269 6.90506V6.36252C3.89346 6.36252 5.86293 7.06946 7.70111 8.48336C9.57211 9.86437 11.0656 11.7386 12.1817 14.106C13.2977 16.4406 13.8557 18.956 13.8557 21.6523C13.8557 23.8882 13.2156 26.0419 11.9355 28.1134C10.6881 30.1521 9.0305 31.7961 6.96256 33.0456C4.92743 34.2951 2.79384 34.9199 0.561768 34.9199V34.3773ZM18.1886 34.476L29.3161 14.4513L26.2142 10.8508L11.8862 34.7719L9.86753 34.476L20.5519 10.5055L1.79269 10.4562V9.91369L22.9153 9.96301L11.8862 34.7719L10.0152 34.4266L25.771 8.03946L31.3348 14.5499L20.1088 34.6732L18.1886 34.476Z" fill="black"/>
<path d="M35.3114 34.0814C36.8542 34.0814 38.5282 33.5553 40.3336 32.5031C42.1389 31.418 43.6653 29.8726 44.9126 27.8668C46.1928 25.8611 46.8328 23.5101 46.8328 20.8138C46.8328 17.427 46.242 14.5828 45.0603 12.2811C43.9115 9.94657 42.5328 8.2203 40.9244 7.10234C39.316 5.98438 37.8717 5.4254 36.5916 5.4254V4.88286C38.7908 4.88286 40.8424 5.62269 42.7462 7.10234C44.6828 8.54912 46.2256 10.5055 47.3745 12.9716C48.5561 15.4049 49.147 18.0189 49.147 20.8138C49.147 23.1484 48.4905 25.3843 47.1775 27.5216C45.8645 29.6589 44.1248 31.3851 41.9584 32.7004C39.8248 34.0156 37.6092 34.6732 35.3114 34.6732V34.0814ZM45.6512 40C43.3206 40 41.0886 39.3424 38.955 38.0271C36.8214 36.7448 35.0981 35.0349 33.7851 32.8977C32.4721 30.7604 31.8156 28.5245 31.8156 26.1899C31.8156 23.3621 32.39 20.7316 33.5389 18.2984C34.7206 15.8323 36.2633 13.8759 38.1672 12.4291C40.1038 10.9494 42.1718 10.2096 44.371 10.2096V10.8015C43.058 10.8015 41.5973 11.3605 39.9889 12.4784C38.4134 13.5635 37.0347 15.2733 35.853 17.6079C34.7042 19.9096 34.1297 22.7702 34.1297 26.1899C34.1297 28.8861 34.7534 31.2372 36.0007 33.2429C37.2809 35.2487 38.8237 36.7776 40.629 37.8298C42.4344 38.882 44.1084 39.4081 45.6512 39.4081V40Z" fill="black"/>
<path d="M49.6544 34.0321C51.1971 34.0321 52.8712 33.506 54.6765 32.4538C56.4819 31.3687 58.0082 29.8233 59.2555 27.8175C60.5357 25.8118 61.1758 23.4607 61.1758 20.7645C61.1758 17.3777 60.5849 14.5335 59.4032 12.2318C58.2544 9.89725 56.8758 8.17098 55.2673 7.05302C53.6589 5.93506 52.2147 5.37608 50.9345 5.37608V4.83354C53.1338 4.83354 55.1853 5.57337 57.0891 7.05302C59.0258 8.49979 60.5685 10.4562 61.7174 12.9223C62.8991 15.3555 63.4899 17.9696 63.4899 20.7645C63.4899 23.0991 62.8334 25.335 61.5204 27.4723C60.2074 29.6095 58.4677 31.3358 56.3013 32.651C54.1677 33.9663 51.9521 34.6239 49.6544 34.6239V34.0321ZM72.3525 17.9038L67.4781 10.5549H50.7868V9.96301H69.2014L74.2728 17.5586L72.3525 17.9038ZM57.9754 34.4266C59.2555 33.2758 60.7162 32.6182 62.3575 32.4538C64.0315 32.2894 65.5086 32.6346 66.7888 33.4895L72.5987 20.8138L55.5628 33.0949L54.3811 32.7004L76.2422 17.0654L67.4781 36.0543C66.1323 34.18 64.8357 33.1443 63.5884 32.947C62.341 32.7497 60.8968 33.3744 59.2555 34.8212L57.9754 34.4266Z" fill="black"/>
<path d="M76.725 33.9334C79.0884 33.9334 81.2876 33.358 83.3227 32.2072C85.3578 31.0563 86.9663 29.4945 88.1479 27.5216C89.3296 25.5487 89.9205 23.395 89.9205 21.0604C89.9205 18.1011 89.3624 15.5035 88.2464 13.2676C87.1632 10.9988 85.6204 9.23962 83.6181 7.99014C81.6159 6.74065 79.3181 6.11591 76.725 6.11591V5.52405C79.7777 5.52405 82.4693 6.16523 84.7998 7.4476C87.1304 8.69708 88.9357 10.4891 90.2159 12.8237C91.5289 15.1582 92.1854 17.9038 92.1854 21.0604C92.1854 23.6252 91.4796 25.9433 90.0682 28.0148C88.6895 30.0534 86.8185 31.6482 84.4552 32.799C82.0918 33.9499 79.5151 34.5253 76.725 34.5253V33.9334ZM99.5709 17.8545L94.6964 10.5055H76.725V9.91369H96.4197L101.491 17.5092L99.5709 17.8545ZM76.725 33.9334H94.3518L99.2262 26.6338L101.146 26.979L96.0751 34.5253H76.725V33.9334Z" fill="black"/>
<path d="M105.464 34.0814C107.007 34.0814 108.681 33.5553 110.486 32.5031C112.292 31.418 113.818 29.8726 115.065 27.8668C116.346 25.8611 116.986 23.5101 116.986 20.8138C116.986 17.427 116.395 14.5828 115.213 12.2811C114.064 9.94657 112.686 8.2203 111.077 7.10234C109.469 5.98438 108.025 5.4254 106.744 5.4254V4.88286C108.944 4.88286 110.995 5.62269 112.899 7.10234C114.836 8.54912 116.378 10.5055 117.527 12.9716C118.709 15.4049 119.3 18.0189 119.3 20.8138C119.3 23.1484 118.643 25.3843 117.33 27.5216C116.017 29.6589 114.278 31.3851 112.111 32.7004C109.978 34.0156 107.762 34.6732 105.464 34.6732V34.0814ZM115.804 40C113.473 40 111.241 39.3424 109.108 38.0271C106.974 36.7448 105.251 35.0349 103.938 32.8977C102.625 30.7604 101.968 28.5245 101.968 26.1899C101.968 23.3621 102.543 20.7316 103.692 18.2984C104.873 15.8323 106.416 13.8759 108.32 12.4291C110.257 10.9494 112.325 10.2096 114.524 10.2096V10.8015C113.211 10.8015 111.75 11.3605 110.142 12.4784C108.566 13.5635 107.188 15.2733 106.006 17.6079C104.857 19.9096 104.283 22.7702 104.283 26.1899C104.283 28.8861 104.906 31.2372 106.154 33.2429C107.434 35.2487 108.977 36.7776 110.782 37.8298C112.587 38.882 114.261 39.4081 115.804 39.4081V40Z" fill="black"/>
<path d="M119.807 34.3773C121.284 34.3773 122.893 33.8677 124.632 32.8483C126.372 31.829 127.849 30.3658 129.064 28.4587C130.278 26.5187 130.886 24.2499 130.886 21.6523C130.886 18.397 130.327 15.6679 129.211 13.4649C128.095 11.2289 126.766 9.58487 125.223 8.53268C123.681 7.4476 122.285 6.90506 121.038 6.90506V6.36252C123.139 6.36252 125.108 7.06946 126.947 8.48336C128.818 9.86437 130.311 11.7386 131.427 14.106C132.543 16.4406 133.101 18.956 133.101 21.6523C133.101 23.8882 132.461 26.0419 131.181 28.1134C129.934 30.1521 128.276 31.7961 126.208 33.0456C124.173 34.2951 122.039 34.9199 119.807 34.9199V34.3773ZM151.91 30.0863L146.346 36.5968L130.59 10.2096L132.461 9.86437L143.49 34.6732L119.807 34.9199V34.3773L141.127 34.1307L130.442 10.1603L132.461 9.86437L146.789 33.7854L149.891 30.185L138.763 10.1603L140.684 9.96301L151.91 30.0863Z" fill="black"/>
<path d="M181.93 33.9334C184.294 33.9334 186.493 33.358 188.528 32.2072C190.563 31.0563 192.172 29.4945 193.353 27.5216C194.535 25.5487 195.126 23.395 195.126 21.0604C195.126 18.1011 194.568 15.5035 193.452 13.2676C192.368 10.9988 190.826 9.23962 188.823 7.99014C186.821 6.74065 184.523 6.11591 181.93 6.11591V5.52405C184.983 5.52405 187.675 6.16523 190.005 7.4476C192.336 8.69708 194.141 10.4891 195.421 12.8237C196.734 15.1582 197.391 17.9038 197.391 21.0604C197.391 23.6252 196.685 25.9433 195.273 28.0148C193.895 30.0534 192.024 31.6482 189.66 32.799C187.297 33.9499 184.72 34.5253 181.93 34.5253V33.9334ZM204.776 17.8545L199.902 10.5055H181.93V9.91369H201.625L206.696 17.5092L204.776 17.8545ZM181.93 33.9334H199.557L204.431 26.6338L206.352 26.979L201.28 34.5253H181.93V33.9334Z" fill="black"/>
<path d="M210.67 34.0814C212.212 34.0814 213.886 33.5553 215.692 32.5031C217.497 31.418 219.023 29.8726 220.271 27.8668C221.551 25.8611 222.191 23.5101 222.191 20.8138C222.191 17.427 221.6 14.5828 220.418 12.2811C219.27 9.94657 217.891 8.2203 216.283 7.10234C214.674 5.98438 213.23 5.4254 211.95 5.4254V4.88286C214.149 4.88286 216.201 5.62269 218.104 7.10234C220.041 8.54912 221.584 10.5055 222.733 12.9716C223.914 15.4049 224.505 18.0189 224.505 20.8138C224.505 23.1484 223.849 25.3843 222.536 27.5216C221.223 29.6589 219.483 31.3851 217.317 32.7004C215.183 34.0156 212.967 34.6732 210.67 34.6732V34.0814ZM221.009 40C218.679 40 216.447 39.3424 214.313 38.0271C212.18 36.7448 210.456 35.0349 209.143 32.8977C207.83 30.7604 207.174 28.5245 207.174 26.1899C207.174 23.3621 207.748 20.7316 208.897 18.2984C210.079 15.8323 211.621 13.8759 213.525 12.4291C215.462 10.9494 217.53 10.2096 219.729 10.2096V10.8015C218.416 10.8015 216.955 11.3605 215.347 12.4784C213.771 13.5635 212.393 15.2733 211.211 17.6079C210.062 19.9096 209.488 22.7702 209.488 26.1899C209.488 28.8861 210.112 31.2372 211.359 33.2429C212.639 35.2487 214.182 36.7776 215.987 37.8298C217.792 38.882 219.467 39.4081 221.009 39.4081V40Z" fill="black"/>
<path d="M225.012 33.8841C226.555 33.8841 228.229 33.358 230.035 32.3058C231.84 31.2207 233.366 29.6753 234.614 27.6695C235.894 25.6638 236.534 23.3128 236.534 20.6165C236.534 17.2298 235.943 14.3855 234.761 12.0838C233.613 9.74928 232.234 8.02302 230.625 6.90506C229.017 5.78709 227.573 5.22811 226.293 5.22811V4.68557C228.492 4.65269 230.543 5.35964 232.447 6.80641C234.384 8.25319 235.927 10.2096 237.076 12.6757C238.257 15.1418 238.848 17.7887 238.848 20.6165C238.848 22.9511 238.192 25.187 236.879 27.3243C235.566 29.4616 233.826 31.1878 231.659 32.5031C229.526 33.8183 227.31 34.476 225.012 34.476V33.8841ZM233.629 30.4809L235.648 34.2293L246.874 34.18L241.605 10.1603H226.293V9.66708H243.476L248.942 34.6732L234.072 34.7226L232.053 31.0234L233.629 30.4809Z" fill="black"/>
<path d="M249.439 33.9334C250.948 33.9663 252.606 33.4566 254.411 32.4044C256.25 31.3522 257.792 29.8233 259.04 27.8175C260.32 25.7789 260.96 23.395 260.96 20.6658C260.96 17.2791 260.369 14.4349 259.187 12.1332C258.039 9.7986 256.66 8.07234 255.052 6.95438C253.443 5.83642 251.999 5.27743 250.719 5.27743V4.7349C252.918 4.70202 254.97 5.40896 256.873 6.85573C258.81 8.30251 260.353 10.2589 261.502 12.725C262.683 15.1911 263.274 17.8381 263.274 20.6658C263.274 23.0333 262.601 25.3021 261.255 27.4723C259.942 29.6095 258.219 31.3358 256.086 32.651C253.952 33.9334 251.736 34.5582 249.439 34.5253V33.9334ZM260.074 7.39827V0H262.043V7.39827H260.074Z" fill="black"/>
<path d="M263.767 33.9334C265.277 33.9663 266.935 33.4566 268.74 32.4044C270.578 31.3522 272.121 29.8233 273.368 27.8175C274.649 25.7789 275.289 23.395 275.289 20.6658C275.289 17.2791 274.698 14.4349 273.516 12.1332C272.367 9.7986 270.989 8.07234 269.38 6.95438C267.772 5.83642 266.328 5.27743 265.047 5.27743V4.7349C267.247 4.70202 269.298 5.40896 271.202 6.85573C273.139 8.30251 274.681 10.2589 275.83 12.725C277.012 15.1911 277.603 17.8381 277.603 20.6658C277.603 23.0333 276.93 25.3021 275.584 27.4723C274.271 29.6095 272.548 31.3358 270.414 32.651C268.281 33.9334 266.065 34.5582 263.767 34.5253V33.9334ZM281.246 34.5253L279.228 34.2293L283.757 10.5055H265.047V9.96301H286.121L281.246 34.5253L279.375 34.18L288.435 9.96301H290.552L281.246 34.5253Z" fill="black"/>
<path d="M291.03 34.18C293.394 34.18 295.593 33.6046 297.628 32.4538C299.663 31.3029 301.271 29.7411 302.453 27.7682C303.635 25.7953 304.226 23.6416 304.226 21.307C304.226 18.3477 303.668 15.7501 302.552 13.5142C301.468 11.2454 299.926 9.48623 297.923 8.23674C295.921 6.98726 293.623 6.36252 291.03 6.36252V5.77066C294.083 5.77066 296.775 6.41184 299.105 7.6942C301.436 8.94369 303.241 10.7357 304.521 13.0703C305.834 15.4048 306.491 18.1504 306.491 21.307C306.491 23.8718 305.785 26.1899 304.373 28.2614C302.995 30.3 301.124 31.8948 298.76 33.0456C296.397 34.1965 293.82 34.7719 291.03 34.7719V34.18ZM313.876 17.9038L309.002 10.5549H291.03V9.96301H310.725L315.796 17.5586L313.876 17.9038ZM291.03 34.18L313.728 33.9334L313.531 26.8804L315.452 27.2256V34.5253L291.03 34.7719V34.18ZM318.997 34.4266L314.122 27.0777H308.559V26.4858H315.846L320.917 34.0814L318.997 34.4266Z" fill="black"/>
<path d="M350.941 34.0321C352.484 34.0321 354.158 33.506 355.964 32.4538C357.769 31.3687 359.295 29.8233 360.543 27.8175C361.823 25.8118 362.463 23.4607 362.463 20.7645C362.463 17.3777 361.872 14.5335 360.69 12.2318C359.541 9.89725 358.163 8.17098 356.554 7.05302C354.946 5.93506 353.502 5.37608 352.222 5.37608V4.83354C354.421 4.83354 356.472 5.57337 358.376 7.05302C360.313 8.49979 361.856 10.4562 363.004 12.9223C364.186 15.3555 364.777 17.9696 364.777 20.7645C364.777 23.0991 364.12 25.335 362.808 27.4723C361.495 29.6095 359.755 31.3358 357.588 32.651C355.455 33.9663 353.239 34.6239 350.941 34.6239V34.0321ZM373.64 17.9038L368.765 10.5549H352.074V9.96301H370.488L375.56 17.5586L373.64 17.9038ZM359.262 34.4266C360.543 33.2758 362.003 32.6182 363.645 32.4538C365.319 32.2894 366.796 32.6346 368.076 33.4895L373.886 20.8138L356.85 33.0949L355.668 32.7004L377.529 17.0654L368.765 36.0543C367.419 34.18 366.123 33.1443 364.875 32.947C363.628 32.7497 362.184 33.3744 360.543 34.8212L359.262 34.4266Z" fill="black"/>
<path d="M378.012 33.9334C380.375 33.9334 382.575 33.358 384.61 32.2072C386.645 31.0563 388.253 29.4945 389.435 27.5216C390.617 25.5487 391.208 23.395 391.208 21.0604C391.208 18.1011 390.65 15.5035 389.534 13.2676C388.45 10.9988 386.908 9.23962 384.905 7.99014C382.903 6.74065 380.605 6.11591 378.012 6.11591V5.52405C381.065 5.52405 383.756 6.16523 386.087 7.4476C388.417 8.69708 390.223 10.4891 391.503 12.8237C392.816 15.1582 393.472 17.9038 393.472 21.0604C393.472 23.6252 392.767 25.9433 391.355 28.0148C389.977 30.0534 388.106 31.6482 385.742 32.799C383.379 33.9499 380.802 34.5253 378.012 34.5253V33.9334ZM400.858 17.8545L395.984 10.5055H378.012V9.91369H397.707L402.778 17.5092L400.858 17.8545ZM378.012 33.9334H395.639L400.513 26.6338L402.434 26.979L397.362 34.5253H378.012V33.9334Z" fill="black"/>
<path d="M403.256 33.9827C405.619 33.9827 407.818 33.4073 409.853 32.2565C411.888 31.1056 413.497 29.5438 414.679 27.5709C415.86 25.598 416.451 23.4443 416.451 21.1097C416.451 18.1504 415.893 15.5528 414.777 13.3169C413.694 11.0481 412.151 9.28894 410.149 8.03946C408.146 6.78997 405.849 6.16523 403.256 6.16523V5.57337C406.308 5.57337 409 6.21455 411.33 7.49692C413.661 8.7464 415.466 10.5384 416.746 12.873C418.059 15.2076 418.716 17.9531 418.716 21.1097C418.716 23.6745 418.01 25.9926 416.599 28.0641C415.22 30.1028 413.349 31.6975 410.986 32.8483C408.622 33.9992 406.046 34.5746 403.256 34.5746V33.9827ZM407.835 13.5142L412.709 20.8631H431.124L436.195 28.4587L434.275 28.8039L429.4 21.455H410.986L405.914 13.8594L407.835 13.5142ZM438.312 35.1665C435.522 35.1665 432.945 34.591 430.582 33.4402C428.219 32.2894 426.331 30.6946 424.92 28.656C423.541 26.5845 422.852 24.2663 422.852 21.7016C422.852 18.545 423.492 15.7994 424.772 13.4649C426.085 11.1303 427.907 9.33827 430.237 8.08878C432.568 6.80641 435.259 6.16523 438.312 6.16523V6.75709C435.719 6.75709 433.421 7.38183 431.419 8.63132C429.417 9.88081 427.858 11.64 426.742 13.9088C425.658 16.1447 425.117 18.7423 425.117 21.7016C425.117 24.0362 425.708 26.1899 426.889 28.1628C428.071 30.1356 429.679 31.6975 431.714 32.8483C433.75 33.9992 435.949 34.5746 438.312 34.5746V35.1665Z" fill="black"/>
<path d="M442.285 34.0814C443.827 34.0814 445.501 33.5553 447.307 32.5031C449.112 31.418 450.638 29.8726 451.886 27.8668C453.166 25.8611 453.806 23.5101 453.806 20.8138C453.806 17.427 453.215 14.5828 452.034 12.2811C450.885 9.94657 449.506 8.2203 447.898 7.10234C446.289 5.98438 444.845 5.4254 443.565 5.4254V4.88286C445.764 4.88286 447.816 5.62269 449.719 7.10234C451.656 8.54912 453.199 10.5055 454.348 12.9716C455.529 15.4049 456.12 18.0189 456.12 20.8138C456.12 23.1484 455.464 25.3843 454.151 27.5216C452.838 29.6589 451.098 31.3851 448.932 32.7004C446.798 34.0156 444.582 34.6732 442.285 34.6732V34.0814ZM452.624 40C450.294 40 448.062 39.3424 445.928 38.0271C443.795 36.7448 442.071 35.0349 440.758 32.8977C439.445 30.7604 438.789 28.5245 438.789 26.1899C438.789 23.3621 439.363 20.7316 440.512 18.2984C441.694 15.8323 443.237 13.8759 445.14 12.4291C447.077 10.9494 449.145 10.2096 451.344 10.2096V10.8015C450.031 10.8015 448.571 11.3605 446.962 12.4784C445.387 13.5635 444.008 15.2733 442.826 17.6079C441.677 19.9096 441.103 22.7702 441.103 26.1899C441.103 28.8861 441.727 31.2372 442.974 33.2429C444.254 35.2487 445.797 36.7776 447.602 37.8298C449.408 38.882 451.082 39.4081 452.624 39.4081V40Z" fill="black"/>
<path d="M460.123 34.0814C461.666 34.0814 463.34 33.5553 465.146 32.5031C466.951 31.418 468.477 29.8726 469.725 27.8668C471.005 25.8611 471.645 23.5101 471.645 20.8138C471.645 17.427 471.054 14.5828 469.872 12.2811C468.723 9.94657 467.345 8.2203 465.736 7.10234C464.128 5.98438 462.684 5.4254 461.404 5.4254V4.88286C463.603 4.88286 465.654 5.62269 467.558 7.10234C469.495 8.54912 471.038 10.5055 472.186 12.9716C473.368 15.4049 473.959 18.0189 473.959 20.8138C473.959 23.1484 473.302 25.3843 471.989 27.5216C470.676 29.6589 468.937 31.3851 466.77 32.7004C464.637 34.0156 462.421 34.6732 460.123 34.6732V34.0814ZM470.463 40C468.133 40 465.9 39.3424 463.767 38.0271C461.633 36.7448 459.91 35.0349 458.597 32.8977C457.284 30.7604 456.628 28.5245 456.628 26.1899C456.628 23.3621 457.202 20.7316 458.351 18.2984C459.532 15.8323 461.075 13.8759 462.979 12.4291C464.916 10.9494 466.984 10.2096 469.183 10.2096V10.8015C467.87 10.8015 466.409 11.3605 464.801 12.4784C463.225 13.5635 461.847 15.2733 460.665 17.6079C459.516 19.9096 458.942 22.7702 458.942 26.1899C458.942 28.8861 459.565 31.2372 460.813 33.2429C462.093 35.2487 463.636 36.7776 465.441 37.8298C467.246 38.882 468.92 39.4081 470.463 39.4081V40Z" fill="black"/>
<path d="M476.14 34.1307C478.504 34.1307 480.703 33.5553 482.738 32.4044C484.773 31.2536 486.382 29.6917 487.563 27.7189C488.745 25.746 489.336 23.5923 489.336 21.2577C489.336 18.2984 488.778 15.7008 487.662 13.4649C486.579 11.1961 485.036 9.43691 483.033 8.18742C481.031 6.93794 478.733 6.31319 476.14 6.31319V5.72133C479.193 5.72133 481.885 6.36252 484.215 7.64488C486.546 8.89437 488.351 10.6864 489.631 13.021C490.944 15.3555 491.601 18.1011 491.601 21.2577C491.601 23.8224 490.895 26.1406 489.483 28.2121C488.105 30.2507 486.234 31.8455 483.871 32.9963C481.507 34.1471 478.93 34.7226 476.14 34.7226V34.1307ZM476.14 34.1307H493.767L498.642 26.8311L500.562 27.1763L495.49 34.7226H476.14V34.1307Z" fill="black"/>
</svg>
