<svg width="300" height="300" viewBox="0 0 300 300" fill="none" xmlns="http://www.w3.org/2000/svg">
<rect x="0.5" y="0.5" width="299" height="299" rx="4.5" fill="#F1EEEE" stroke="black"/>
<path d="M122.426 154.8H134.426C134.426 159.2 135.866 162.92 138.746 165.96C141.706 168.92 145.466 170.4 150.026 170.4C154.586 170.4 158.306 168.92 161.186 165.96C164.146 162.92 165.626 159.2 165.626 154.8C165.626 150.4 164.106 146.72 161.066 143.76C158.106 140.72 154.226 139.2 149.426 139.2C142.946 139.2 138.226 141.4 135.266 145.8L124.946 141L130.466 96H175.826V108H140.786L138.386 129.72C142.146 128.04 146.026 127.2 150.026 127.2C158.026 127.2 164.626 129.88 169.826 135.24C175.026 140.52 177.626 147.04 177.626 154.8C177.626 162.48 174.986 169 169.706 174.36C164.426 179.72 157.866 182.4 150.026 182.4C142.186 182.4 135.626 179.72 130.346 174.36C125.066 169 122.426 162.48 122.426 154.8Z" fill="white"/>
<path d="M122.426 154.8V153.8H121.426V154.8H122.426ZM134.426 154.8H135.426V153.8H134.426V154.8ZM138.746 165.96L138.02 166.648L138.029 166.658L138.039 166.667L138.746 165.96ZM161.186 165.96L160.469 165.262L160.469 165.263L161.186 165.96ZM161.066 143.76L160.349 144.458L160.359 144.467L160.368 144.476L161.066 143.76ZM135.266 145.8L134.844 146.707L135.619 147.067L136.096 146.358L135.266 145.8ZM124.946 141L123.953 140.878L123.865 141.6L124.524 141.907L124.946 141ZM130.466 96V95H129.581L129.473 95.8782L130.466 96ZM175.826 96H176.826V95H175.826V96ZM175.826 108V109H176.826V108H175.826ZM140.786 108V107H139.89L139.792 107.89L140.786 108ZM138.386 129.72L137.392 129.61L137.2 131.345L138.794 130.633L138.386 129.72ZM169.826 135.24L169.108 135.936L169.113 135.942L169.826 135.24ZM169.706 174.36L170.418 175.062L169.706 174.36ZM130.346 174.36L129.633 175.062L129.633 175.062L130.346 174.36ZM122.426 155.8H134.426V153.8H122.426V155.8ZM133.426 154.8C133.426 159.442 134.954 163.412 138.02 166.648L139.472 165.272C136.777 162.428 135.426 158.958 135.426 154.8H133.426ZM138.039 166.667C141.204 169.832 145.227 171.4 150.026 171.4V169.4C145.705 169.4 142.208 168.008 139.453 165.253L138.039 166.667ZM150.026 171.4C154.825 171.4 158.814 169.832 161.903 166.657L160.469 165.263C157.798 168.008 154.347 169.4 150.026 169.4V171.4ZM161.902 166.658C165.051 163.423 166.626 159.45 166.626 154.8H164.626C164.626 158.95 163.24 162.417 160.469 165.262L161.902 166.658ZM166.626 154.8C166.626 150.141 165.005 146.199 161.763 143.044L160.368 144.476C163.207 147.241 164.626 150.659 164.626 154.8H166.626ZM161.782 143.062C158.609 139.803 154.457 138.2 149.426 138.2V140.2C153.995 140.2 157.603 141.637 160.349 144.458L161.782 143.062ZM149.426 138.2C142.697 138.2 137.624 140.502 134.436 145.242L136.096 146.358C138.827 142.298 143.194 140.2 149.426 140.2V138.2ZM135.688 144.893L125.368 140.093L124.524 141.907L134.844 146.707L135.688 144.893ZM125.938 141.122L131.458 96.1217L129.473 95.8782L123.953 140.878L125.938 141.122ZM130.466 97H175.826V95H130.466V97ZM174.826 96V108H176.826V96H174.826ZM175.826 107H140.786V109H175.826V107ZM139.792 107.89L137.392 129.61L139.38 129.83L141.78 108.11L139.792 107.89ZM138.794 130.633C142.429 129.009 146.171 128.2 150.026 128.2V126.2C145.881 126.2 141.862 127.071 137.978 128.807L138.794 130.633ZM150.026 128.2C157.777 128.2 164.111 130.785 169.108 135.936L170.544 134.544C165.141 128.975 158.275 126.2 150.026 126.2V128.2ZM169.113 135.942C174.12 141.025 176.626 147.289 176.626 154.8H178.626C178.626 146.791 175.932 140.015 170.538 134.538L169.113 135.942ZM176.626 154.8C176.626 162.223 174.085 168.49 168.993 173.658L170.418 175.062C175.887 169.51 178.626 162.737 178.626 154.8H176.626ZM168.993 173.658C163.91 178.819 157.611 181.4 150.026 181.4V183.4C158.121 183.4 164.942 180.621 170.418 175.062L168.993 173.658ZM150.026 181.4C142.441 181.4 136.142 178.819 131.058 173.658L129.633 175.062C135.11 180.621 141.931 183.4 150.026 183.4V181.4ZM131.058 173.658C125.967 168.49 123.426 162.223 123.426 154.8H121.426C121.426 162.737 124.165 169.51 129.633 175.062L131.058 173.658Z" fill="black"/>
</svg>
