<svg width="300" height="300" viewBox="0 0 300 300" fill="none" xmlns="http://www.w3.org/2000/svg">
<rect x="0.5" y="0.5" width="299" height="299" rx="4.5" fill="#00FF00" stroke="black"/>
<path d="M174.026 180H126.026V168H144.026V108H134.426V96H156.026V168H174.026V180Z" fill="white"/>
<path d="M174.026 180V181H175.026V180H174.026ZM126.026 180H125.026V181H126.026V180ZM126.026 168V167H125.026V168H126.026ZM144.026 168V169H145.026V168H144.026ZM144.026 108H145.026V107H144.026V108ZM134.426 108H133.426V109H134.426V108ZM134.426 96V95H133.426V96H134.426ZM156.026 96H157.026V95H156.026V96ZM156.026 168H155.026V169H156.026V168ZM174.026 168H175.026V167H174.026V168ZM174.026 179H126.026V181H174.026V179ZM127.026 180V168H125.026V180H127.026ZM126.026 169H144.026V167H126.026V169ZM145.026 168V108H143.026V168H145.026ZM144.026 107H134.426V109H144.026V107ZM135.426 108V96H133.426V108H135.426ZM134.426 97H156.026V95H134.426V97ZM155.026 96V168H157.026V96H155.026ZM156.026 169H174.026V167H156.026V169ZM173.026 168V180H175.026V168H173.026Z" fill="black"/>
</svg>
