<svg width="300" height="300" viewBox="0 0 300 300" fill="none" xmlns="http://www.w3.org/2000/svg">
<rect x="0.5" y="0.5" width="299" height="299" rx="4.5" fill="white" stroke="black"/>
<path d="M141.026 142.8V130.8H150.026C153.546 130.8 156.506 129.56 158.906 127.08C161.386 124.6 162.626 121.64 162.626 118.2C162.626 114.76 161.386 111.8 158.906 109.32C156.506 106.84 153.546 105.6 150.026 105.6C146.506 105.6 143.506 106.84 141.026 109.32C138.626 111.8 137.426 114.76 137.426 118.2V120.6H125.426V118.2C125.426 111.4 127.826 105.6 132.626 100.8C137.426 96 143.226 93.6 150.026 93.6C156.826 93.6 162.626 96 167.426 100.8C172.226 105.6 174.626 111.4 174.626 118.2C174.626 125.64 171.826 131.76 166.226 136.56C172.626 141.68 175.826 148.36 175.826 156.6C175.826 163.72 173.306 169.8 168.266 174.84C163.226 179.88 157.146 182.4 150.026 182.4C142.906 182.4 136.826 179.88 131.786 174.84C126.746 169.8 124.226 163.72 124.226 156.6V153H136.226V156.6C136.226 160.36 137.586 163.6 140.306 166.32C143.026 169.04 146.266 170.4 150.026 170.4C153.786 170.4 157.026 169.04 159.746 166.32C162.466 163.6 163.826 160.36 163.826 156.6C163.826 152.84 162.466 149.6 159.746 146.88C157.026 144.16 153.786 142.8 150.026 142.8H141.026Z" fill="white"/>
<path d="M141.026 142.8H140.026V143.8H141.026V142.8ZM141.026 130.8V129.8H140.026V130.8H141.026ZM158.906 127.08L158.199 126.373L158.193 126.379L158.187 126.385L158.906 127.08ZM158.906 109.32L158.187 110.015L158.193 110.021L158.199 110.027L158.906 109.32ZM141.026 109.32L140.319 108.613L140.313 108.619L140.307 108.625L141.026 109.32ZM137.426 120.6V121.6H138.426V120.6H137.426ZM125.426 120.6H124.426V121.6H125.426V120.6ZM166.226 136.56L165.575 135.801L164.658 136.587L165.601 137.341L166.226 136.56ZM168.266 174.84L167.559 174.133L167.559 174.133L168.266 174.84ZM131.786 174.84L131.079 175.547L131.079 175.547L131.786 174.84ZM124.226 153V152H123.226V153H124.226ZM136.226 153H137.226V152H136.226V153ZM140.306 166.32L141.013 165.613L141.013 165.613L140.306 166.32ZM159.746 166.32L160.453 167.027L160.453 167.027L159.746 166.32ZM159.746 146.88L160.453 146.173L160.453 146.173L159.746 146.88ZM142.026 142.8V130.8H140.026V142.8H142.026ZM141.026 131.8H150.026V129.8H141.026V131.8ZM150.026 131.8C153.811 131.8 157.032 130.454 159.624 127.775L158.187 126.385C155.98 128.666 153.281 129.8 150.026 129.8V131.8ZM159.613 127.787C162.276 125.124 163.626 121.911 163.626 118.2H161.626C161.626 121.369 160.495 124.076 158.199 126.373L159.613 127.787ZM163.626 118.2C163.626 114.489 162.276 111.276 159.613 108.613L158.199 110.027C160.495 112.324 161.626 115.031 161.626 118.2H163.626ZM159.624 108.625C157.032 105.946 153.811 104.6 150.026 104.6V106.6C153.281 106.6 155.98 107.734 158.187 110.015L159.624 108.625ZM150.026 104.6C146.242 104.6 142.987 105.945 140.319 108.613L141.733 110.027C144.025 107.735 146.77 106.6 150.026 106.6V104.6ZM140.307 108.625C137.727 111.29 136.426 114.5 136.426 118.2H138.426C138.426 115.02 139.524 112.31 141.744 110.015L140.307 108.625ZM136.426 118.2V120.6H138.426V118.2H136.426ZM137.426 119.6H125.426V121.6H137.426V119.6ZM126.426 120.6V118.2H124.426V120.6H126.426ZM126.426 118.2C126.426 111.665 128.721 106.119 133.333 101.507L131.919 100.093C126.931 105.081 124.426 111.135 124.426 118.2H126.426ZM133.333 101.507C137.945 96.895 143.49 94.6 150.026 94.6V92.6C142.961 92.6 136.907 95.105 131.919 100.093L133.333 101.507ZM150.026 94.6C156.561 94.6 162.107 96.895 166.719 101.507L168.133 100.093C163.145 95.105 157.09 92.6 150.026 92.6V94.6ZM166.719 101.507C171.331 106.119 173.626 111.665 173.626 118.2H175.626C175.626 111.135 173.121 105.081 168.133 100.093L166.719 101.507ZM173.626 118.2C173.626 125.351 170.951 131.193 165.575 135.801L166.877 137.319C172.7 132.327 175.626 125.929 175.626 118.2H173.626ZM165.601 137.341C171.762 142.27 174.826 148.662 174.826 156.6H176.826C176.826 148.058 173.489 141.09 166.85 135.779L165.601 137.341ZM174.826 156.6C174.826 163.454 172.411 169.28 167.559 174.133L168.973 175.547C174.2 170.32 176.826 163.986 176.826 156.6H174.826ZM167.559 174.133C162.706 178.986 156.88 181.4 150.026 181.4V183.4C157.411 183.4 163.746 180.774 168.973 175.547L167.559 174.133ZM150.026 181.4C143.171 181.4 137.346 178.986 132.493 174.133L131.079 175.547C136.306 180.774 142.64 183.4 150.026 183.4V181.4ZM132.493 174.133C127.64 169.28 125.226 163.454 125.226 156.6H123.226C123.226 163.986 125.851 170.32 131.079 175.547L132.493 174.133ZM125.226 156.6V153H123.226V156.6H125.226ZM124.226 154H136.226V152H124.226V154ZM135.226 153V156.6H137.226V153H135.226ZM135.226 156.6C135.226 160.632 136.696 164.124 139.599 167.027L141.013 165.613C138.476 163.076 137.226 160.088 137.226 156.6H135.226ZM139.599 167.027C142.501 169.93 145.994 171.4 150.026 171.4V169.4C146.538 169.4 143.55 168.15 141.013 165.613L139.599 167.027ZM150.026 171.4C154.058 171.4 157.55 169.93 160.453 167.027L159.039 165.613C156.501 168.15 153.514 169.4 150.026 169.4V171.4ZM160.453 167.027C163.356 164.124 164.826 160.632 164.826 156.6H162.826C162.826 160.088 161.576 163.076 159.039 165.613L160.453 167.027ZM164.826 156.6C164.826 152.568 163.356 149.076 160.453 146.173L159.039 147.587C161.576 150.124 162.826 153.112 162.826 156.6H164.826ZM160.453 146.173C157.55 143.27 154.058 141.8 150.026 141.8V143.8C153.514 143.8 156.501 145.05 159.039 147.587L160.453 146.173ZM150.026 141.8H141.026V143.8H150.026V141.8Z" fill="black"/>
</svg>
